:FULLY-SPECIFIED
:FORCE-ALL-JOINTS-BE-3DOF
:DEGREES
340
root 8.08944 15.9793 -20.9152 7.5791 25.7641 2.35075
lfemur -19.0178 24.8679 -12.7485
ltibia 49.2407 0 0
lfoot -17.6744 15.471 0
ltoes -18.5876 0 0
rfemur -43.0749 -7.36698 4.53475
rtibia 51.5102 0 0
rfoot 2.02243 -13.3156 0
rtoes 31.7237 0 0
lowerback 5.31849 -0.503754 -1.93875
upperback 3.47708 -0.717288 -0.604167
thorax 0.630915 -0.379243 0.497807
lowerneck -4.90461 -9.69168 2.14992
upperneck -5.40298 -12.808 6.24517
head -0.570748 -6.47551 1.48181
lclavicle -2.55494e-014 8.80193e-015 0
lhumerus -49.0224 -45.7396 111.404
lradius 59.6158 0 0
lwrist 16.0132 0 0
lhand 6.12667 11.4739 0
lfingers 7.12502 0 0
lthumb 31.3739 38.0872 0
rclavicle -2.55494e-014 8.80193e-015 0
rhumerus -10.8553 13.2776 -63.3075
rradius 77.8166 0 0
rwrist -3.5971 0 0
rhand -34.0569 -29.7304 0
rfingers 7.12502 0 0
rthumb -7.23248 -779.187 0
341
root 8.03615 16.0002 -20.7775 7.53478 24.3585 1.89028
lfemur -19.8626 24.9635 -12.6557
ltibia 50.3067 0 0
lfoot -17.4668 14.8926 0
ltoes -17.6862 0 0
rfemur -42.4636 -7.25294 5.38987
rtibia 51.0098 0 0
rfoot 1.14183 -12.8282 0
rtoes 31.1077 0 0
lowerback 5.30153 -0.454464 -1.75087
upperback 3.45147 -0.644567 -0.512445
thorax 0.612064 -0.341693 0.483727
lowerneck -5.03136 -9.43461 2.15791
upperneck -5.30908 -12.4753 6.13548
head -0.534959 -6.30618 1.4477
lclavicle -2.55409e-014 7.64375e-015 0
lhumerus -48.7608 -45.0059 110.937
lradius 59.5995 0 0
lwrist 16.2031 0 0
lhand 5.21844 11.2252 0
lfingers 7.12502 0 0
lthumb 30.504 37.9555 0
rclavicle -2.55409e-014 7.64375e-015 0
rhumerus -11.4973 13.2167 -64.1799
rradius 77.3631 0 0
rwrist -3.29883 0 0
rhand -33.1971 -29.5477 0
rfingers 7.12502 0 0
rthumb -6.40273 -778.996 0
342
root 7.98191 16.0215 -20.6374 7.51316 22.941 1.44802
lfemur -20.7319 25.0499 -12.5658
ltibia 51.4089 0 0
lfoot -17.2497 14.2643 0
ltoes -16.7073 0 0
rfemur -41.8324 -7.132 6.28344
rtibia 50.4962 0 0
rfoot 0.237326 -12.3284 0
rtoes 30.4792 0 0
lowerback 5.28544 -0.406882 -1.55978
upperback 3.42581 -0.573979 -0.420086
thorax 0.592816 -0.305161 0.46864
lowerneck -5.16045 -9.1708 2.1607
upperneck -5.20617 -12.134 6.0227
head -0.495753 -6.13241 1.41326
lclavicle -2.55125e-014 6.45455e-015 0
lhumerus -48.4865 -44.2451 110.448
lradius 59.5828 0 0
lwrist 16.3992 0 0
lhand 4.28761 10.9696 0
lfingers 7.12502 0 0
lthumb 29.6124 37.8193 0
rclavicle -2.55125e-014 6.45455e-015 0
rhumerus -12.1991 13.1548 -65.1074
rradius 76.8898 0 0
rwrist -2.97767 0 0
rhand -32.3061 -29.3433 0
rfingers 7.12502 0 0
rthumb -5.54298 -778.782 0
343
root 7.9268 16.0431 -20.495 7.51247 21.5135 1.02351
lfemur -21.6225 25.127 -12.479
ltibia 52.5426 0 0
lfoot -17.0241 13.5907 0
ltoes -15.6578 0 0
rfemur -41.184 -7.00541 7.21152
rtibia 49.9726 0 0
rfoot -0.687467 -11.8178 0
rtoes 29.8404 0 0
lowerback 5.27021 -0.36083 -1.36608
upperback 3.4001 -0.505319 -0.32738
thorax 0.573179 -0.269548 0.452565
lowerneck -5.29149 -8.90089 2.15882
upperneck -5.09483 -11.7851 5.90709
head -0.453363 -5.95462 1.37848
lclavicle -2.54654e-014 5.23925e-015 0
lhumerus -48.2009 -43.4599 109.942
lradius 59.5656 0 0
lwrist 16.6006 0 0
lhand 3.33691 10.7078 0
lfingers 7.12502 0 0
lthumb 28.7017 37.6792 0
rclavicle -2.54654e-014 5.23925e-015 0
rhumerus -12.956 13.0919 -66.0849
rradius 76.3988 0 0
rwrist -2.63556 0 0
rhand -31.3877 -29.1188 0
rfingers 7.12502 0 0
rthumb -4.65677 -778.549 0
344
root 7.87088 16.0649 -20.3504 7.53095 20.0779 0.616311
lfemur -22.5311 25.1948 -12.395
ltibia 53.7027 0 0
lfoot -16.7911 12.8766 0
ltoes -14.5446 0 0
rfemur -40.5213 -6.87444 8.17015
rtibia 49.4418 0 0
rfoot -1.62895 -11.2978 0
rtoes 29.1935 0 0
lowerback 5.25586 -0.316134 -1.17035
upperback 3.37434 -0.438378 -0.234616
thorax 0.553162 -0.234757 0.435516
lowerneck -5.42407 -8.62553 2.1528
upperneck -4.97567 -11.4294 5.78888
head -0.408025 -5.77324 1.34339
lclavicle -2.5401e-014 4.00277e-015 0
lhumerus -47.9053 -42.6529 109.418
lradius 59.5476 0 0
lwrist 16.8066 0 0
lhand 2.36907 10.4405 0
lfingers 7.12502 0 0
lthumb 27.7745 37.5355 0
rclavicle -2.5401e-014 4.00277e-015 0
rhumerus -13.7633 13.0281 -67.1074
rradius 75.8922 0 0
rwrist -2.27445 0 0
rhand -30.4456 -28.8757 0
rfingers 7.12502 0 0
rthumb -3.74762 -778.297 0
345
root 7.81423 16.0869 -20.2039 7.56684 18.6361 0.225952
lfemur -23.4544 25.2533 -12.3139
ltibia 54.8844 0 0
lfoot -16.5517 12.1268 0
ltoes -13.3745 0 0
rfemur -39.8471 -6.74036 9.1554
rtibia 48.9069 0 0
rfoot -2.58351 -10.7699 0
rtoes 28.5409 0 0
lowerback 5.24236 -0.272618 -0.973199
upperback 3.34856 -0.372952 -0.142084
thorax 0.532772 -0.200691 0.417512
lowerneck -5.55781 -8.34537 2.14317
upperneck -4.84924 -11.0676 5.66832
head -0.359973 -5.58871 1.30797
lclavicle -2.53206e-014 2.75002e-015 0
lhumerus -47.6012 -41.8269 108.881
lradius 59.5286 0 0
lwrist 17.0163 0 0
lhand 1.38684 10.1685 0
lfingers 7.12502 0 0
lthumb 26.8335 37.3885 0
rclavicle -2.53206e-014 2.75002e-015 0
rhumerus -14.6164 12.9636 -68.1699
rradius 75.3719 0 0
rwrist -1.89628 0 0
rhand -29.4833 -28.6158 0
rfingers 7.12502 0 0
rthumb -2.81905 -778.029 0
346
root 7.75692 16.1089 -20.0556 7.61837 17.1898 -0.14802
lfemur -24.389 25.3026 -12.2354
ltibia 56.0828 0 0
lfoot -16.3069 11.3462 0
ltoes -12.1545 0 0
rfemur -39.1644 -6.60444 10.1633
rtibia 48.371 0 0
rfoot -3.54754 -10.2358 0
rtoes 27.8848 0 0
lowerback 5.22974 -0.230105 -0.775209
upperback 3.32276 -0.308832 -0.0500746
thorax 0.512018 -0.167252 0.398567
lowerneck -5.69229 -8.06105 2.13046
upperneck -4.71615 -10.7007 5.54566
head -0.309443 -5.40145 1.27225
lclavicle -2.52255e-014 1.48591e-015 0
lhumerus -47.2899 -40.9845 108.33
lradius 59.5084 0 0
lwrist 17.2292 0 0
lhand 0.392935 9.89248 0
lfingers 7.12502 0 0
lthumb 25.8814 37.2388 0
rclavicle -2.52255e-014 1.48591e-015 0
rhumerus -15.5106 12.8984 -69.2674
rradius 74.84 0 0
rwrist -1.503 0 0
rhand -28.5046 -28.3404 0
rfingers 7.12502 0 0
rthumb -1.87461 -777.745 0
347
root 7.69903 16.131 -19.9057 7.68377 15.741 -0.506061
lfemur -25.3318 25.3426 -12.1595
ltibia 57.2931 0 0
lfoot -16.0579 10.5393 0
ltoes -10.8914 0 0
rfemur -38.4758 -6.46792 11.1899
rtibia 47.837 0 0
rfoot -4.51745 -9.69677 0
rtoes 27.2273 0 0
lowerback 5.21798 -0.18842 -0.576975
upperback 3.29694 -0.245813 0.0411236
thorax 0.490909 -0.134342 0.378698
lowerneck -5.82714 -7.77323 2.1152
upperneck -4.57697 -10.3294 5.42114
head -0.256668 -5.2119 1.23623
lclavicle -2.51169e-014 2.15363e-016 0
lhumerus -46.9727 -40.1283 107.769
lradius 59.4869 0 0
lwrist 17.4442 0 0
lhand -0.609904 9.61314 0
lfingers 7.12502 0 0
lthumb 24.9206 37.0866 0
rclavicle -2.51169e-014 2.15363e-016 0
rhumerus -16.4412 12.8327 -70.3949
rradius 74.2985 0 0
rwrist -1.09656 0 0
rhand -27.5131 -28.0513 0
rfingers 7.12502 0 0
rthumb -0.917809 -777.448 0
